<svg width="72" height="72" viewBox="0 0 72 72" xmlns="http://www.w3.org/2000/svg">
    <g fill-rule="nonzero" fill="none">
        <path opacity=".2" d="M0 0h72v72H0z"/>
        <circle fill="silver" cx="36" cy="36" r="32"/>
        <path d="M36.19 23.65c-1.38 0-2.71.17-3.99.5v-3.07c0-.07 0-.14-.02-.21C31.93 17.5 29.3 15 26.1 15s-5.83 2.49-6.08 5.87c-.01.07-.02 11.53-.02 11.53v7.61c.08 8.87 7.3 16.04 16.19 16.04s16.2-7.25 16.2-16.2-7.25-16.2-16.2-16.2zm0 29.91c-7.57 0-13.71-6.14-13.71-13.71V21.2c0-2.02 1.62-3.65 3.62-3.65s3.62 1.63 3.62 3.65v18.49c0 3.59 2.89 6.66 6.48 6.66a6.49 6.49 0 1 0 0-12.98c-1.5 0-2.89.51-3.99 1.37v-2.78a8.76 8.76 0 0 1 3.99-.95c4.89 0 8.85 3.96 8.85 8.85s-3.96 8.85-8.85 8.85-8.85-3.96-8.85-8.85V21.08c0-.61-.56-1.19-1.24-1.19-.68 0-1.24.58-1.24 1.19v18.77c0 .28.01.57.03.85.43 5.87 5.33 10.49 11.3 10.49 5.97 0 11.34-5.08 11.34-11.34S42.46 28.51 36.2 28.51c-1.4 0-2.75.26-3.99.72v-2.51c1.26-.38 2.6-.59 3.99-.59 7.57 0 13.71 6.14 13.71 13.71 0 7.57-6.14 13.71-13.71 13.71l-.01.01zM32.2 39.85c0-2.2 1.79-3.99 3.99-3.99s3.99 1.79 3.99 3.99-1.79 3.99-3.99 3.99-3.99-1.79-3.99-3.99z" fill="#FFF"/>
    </g>
</svg>
