<svg width="48" height="48" viewBox="0 0 48 48" xmlns="http://www.w3.org/2000/svg">
    <g fill="none" fill-rule="evenodd">
        <circle fill="#FCC800" cx="24" cy="24" r="24"/>
        <path d="M28.827 13h-9.654c-.648 0-1.173.555-1.173 1.24v10.187c0 .685.525 1.24 1.173 1.24h4.453a8.087 8.087 0 0 1-1.198 3.7 14.647 14.647 0 0 1-2.441 2.787.69.69 0 0 0-.228.497c.01.155.069.302.167.417l3.129 3.706c.076.085.17.153.273.198.136.05.287.033.41-.049 3.84-3.059 6.146-7.808 6.262-12.892v-9.79c0-.686-.525-1.241-1.173-1.241" fill="#FFF" fill-rule="nonzero"/>
    </g>
</svg>
