<svg width="48" height="48" viewBox="0 0 48 48" xmlns="http://www.w3.org/2000/svg">
    <g fill="none" fill-rule="evenodd">
        <circle fill="#FEE500" cx="24" cy="24" r="24"/>
        <g fill="#000" fill-rule="nonzero">
            <path d="M19.963 23.907h1.728l-.864-2.455z"/>
            <path d="M24 11c-8.285 0-15 5.295-15 11.827 0 4.223 2.808 7.933 7.031 10.021-.23.792-1.477 5.097-1.526 5.436 0 0-.03.254.134.35.112.057.241.065.358.022.473-.066 5.48-3.578 6.346-4.182.88.122 1.768.182 2.657.18 8.285 0 15-5.295 15-11.827S32.285 11 24 11zm-7.428 15.128a.865.865 0 0 1-1.73 0v-5.14h-1.35a.848.848 0 1 1 0-1.695h4.43a.848.848 0 1 1 0 1.695h-1.35v5.14zm7.274.697c-.173.079-.361.12-.551.12-.36 0-.636-.145-.721-.383l-.433-1.122h-2.634l-.432 1.122c-.084.236-.36.383-.722.383-.19 0-.377-.041-.55-.12-.239-.11-.468-.412-.205-1.229l2.075-5.449c.18-.489.634-.824 1.154-.854.52.03.974.366 1.154.856l2.068 5.446c.264.818.035 1.126-.203 1.23zm4.373 0h-2.777a.813.813 0 0 1-.829-.793v-5.873a.884.884 0 0 1 1.767 0v5.084h1.839a.795.795 0 1 1 0 1.586v-.004zm6.779-.652a.865.865 0 0 1-1.552.404l-2.03-2.687-.3.3v1.888a.865.865 0 0 1-1.73 0v-5.914a.865.865 0 0 1 1.73 0v1.855l2.415-2.414a.67.67 0 0 1 .48-.193.865.865 0 0 1 .596.255c.15.146.24.341.254.55a.672.672 0 0 1-.188.526l-1.976 1.971 2.13 2.823a.865.865 0 0 1 .166.64l.005-.004z"/>
        </g>
    </g>
</svg>
