<svg width="72" height="72" viewBox="0 0 72 72" xmlns="http://www.w3.org/2000/svg">
    <g fill-rule="nonzero" fill="none">
        <path opacity=".2" d="M0 0h72v72H0z"/>
        <circle fill="silver" cx="36" cy="36" r="32"/>
        <path d="M50.97 19.59c3.82 0 6.91 3.11 6.91 6.94v16.46l.01-.01c0 3.83-3.1 6.94-6.91 6.94l-10.321-.001-3.519 5.731s-.02.045-.073.114l-.047.056c-.21.35-.58.59-1.02.59-.44 0-.81-.24-1.02-.59a1.595 1.595 0 0 1-.105-.152l-.005-.008-3.525-5.741-10.315.001c-3.82 0-6.91-3.11-6.91-6.94V26.53c0-3.83 3.09-6.94 6.91-6.94h29.94zm-2.7 12.09h-.078c-.54.005-3.712.203-3.712 4.11 0 0-.04 3.98 3.69 3.98h.067c.302-.003 1.557-.075 2.283-1.02v.63s.19 1.96-1.71 1.96h-.64v2.37h1.04s3.92.04 3.92-4.19v-7.56h-2.6l-.01-.01v.75l-.023-.029a2.948 2.948 0 0 0-2.227-.991zm-9.68 0h-.023c-.346.007-4.407.176-4.407 4.14v.077c.009.562.233 4.003 4.43 4.003 0 0 4.53 0 4.53-4.08v-.075c-.007-.56-.224-4.065-4.53-4.065zm-17.03-3.23h-2.68v11.17h2.71v-.88s.64 1.15 2.25 1.15c0 0 .03-.001.084-.006l.1-.01c.757-.09 3.596-.661 3.596-4.154 0 0-.14-4.08-3.78-4.08v.01h-.026c-.182.008-1.268.091-2.254 1.05v-4.25zm6.91-.25v2.58s1.22-.06 1.22 2.22v6.61h2.58v-7.271c-.003-.467-.14-3.97-3.56-4.133l-.24-.006zm10.12 5.9a1.72 1.72 0 1 1 0 3.44 1.72 1.72 0 0 1 0-3.44zm10.33 0a1.72 1.72 0 1 1 0 3.44 1.72 1.72 0 0 1 0-3.44zm-25.67-.01a1.72 1.72 0 1 1 0 3.44 1.72 1.72 0 0 1 0-3.44z" fill="#FFF"/>
    </g>
</svg>
