<svg width="48" height="48" viewBox="0 0 48 48" xmlns="http://www.w3.org/2000/svg">
    <g fill="none" fill-rule="evenodd">
        <circle fill="#3ACE01" cx="24" cy="24" r="24"/>
        <path d="M24.001 11.029C15.716 11.029 9 16.39 9 23.008c0 5.896 5.336 10.792 12.363 11.793.166.023.331.044.5.062 2.391.498.317 3.483 1.101 4.094.902.701 7.73-3.85 11.878-7.674.591-.49 1.137-1.032 1.632-1.618l.008-.01c.1-.109.193-.225.277-.347C38.18 27.474 39 25.322 39 23.011c.003-6.62-6.714-11.982-14.999-11.982zm-4.896 15.017a.784.784 0 0 1-.782.78h-3.026a.784.784 0 0 1-.777-.78V20.26c.001-.43.351-.779.783-.78h.065c.429.005.775.352.776.78v4.941h2.179c.431.001.781.35.782.78v.065zm2.262 0a.784.784 0 0 1-.782.78h-.066a.785.785 0 0 1-.783-.78V20.26c.002-.43.351-.779.783-.78h.063c.431.001.78.35.781.78l.004 5.786zm7.086 0a.777.777 0 0 1-.226.547.541.541 0 0 1-.19.142.775.775 0 0 1-.367.091h-.065a.774.774 0 0 1-.296-.06.66.66 0 0 1-.305-.222.814.814 0 0 1-.058-.08l-2.848-3.878v3.46a.784.784 0 0 1-.782.78h-.065a.784.784 0 0 1-.783-.78V20.26c.002-.43.351-.779.783-.78h.065a.785.785 0 0 1 .68.398l2.827 3.778V20.26c.001-.43.35-.779.782-.78h.065c.432.001.782.35.783.78v5.786zm5.592-5.707c0 .43-.35.78-.782.78h-2.182v1.235h2.178c.431.002.78.35.781.78v.065c0 .43-.35.78-.781.78H31.08v1.236h2.178c.431.001.78.35.781.78v.065a.784.784 0 0 1-.781.78h-3.03a.784.784 0 0 1-.782-.78v-5.786c0-.43.35-.779.781-.78h3.03c.432.001.782.35.782.78l.005.065z" fill="#FFF" fill-rule="nonzero"/>
    </g>
</svg>
