<svg width="48" height="48" viewBox="0 0 48 48" xmlns="http://www.w3.org/2000/svg">
    <g fill="none" fill-rule="evenodd">
        <circle fill="#CB2027" cx="24" cy="24" r="24"/>
        <path d="M23.02 11.1c-4.912.557-9.807 4.59-10.01 10.352-.126 3.517.858 6.156 4.157 6.897 1.432-2.562-.462-3.128-.756-4.982-1.21-7.598 8.636-12.78 13.788-7.475 3.565 3.673 1.218 14.974-4.532 13.799-5.507-1.122 2.696-10.117-1.7-11.883-3.573-1.435-5.472 4.39-3.778 7.284-.993 4.977-3.132 9.666-2.266 15.908 2.809-2.068 3.755-6.028 4.532-10.158 1.411.87 2.165 1.775 3.966 1.916 6.641.521 10.35-6.728 9.444-13.415-.805-5.929-6.636-8.946-12.844-8.243z" fill="#FFF" fill-rule="nonzero"/>
    </g>
</svg>
