<svg width="48" height="48" viewBox="0 0 48 48" xmlns="http://www.w3.org/2000/svg" xmlns:xlink="http://www.w3.org/1999/xlink">
    <defs>
        <path id="4f71nz35ua" d="M0 0h25.143v20.571H0z"/>
    </defs>
    <g fill="none" fill-rule="evenodd">
        <circle fill="#009ADB" cx="24" cy="24" r="24"/>
        <g transform="translate(12 14)">
            <mask id="9zvazh95fb" fill="#fff">
                <use xlink:href="#4f71nz35ua"/>
            </mask>
            <path d="M25.143 2.435a10.31 10.31 0 0 1-2.964.82A5.217 5.217 0 0 0 24.447.38a10.361 10.361 0 0 1-3.275 1.26A5.138 5.138 0 0 0 17.41 0c-2.851 0-5.16 2.325-5.16 5.193 0 .41.045.804.132 1.185C8.093 6.161 4.296 4.092 1.749.953a5.19 5.19 0 0 0-.697 2.609c0 1.802.91 3.39 2.293 4.323a5.137 5.137 0 0 1-2.335-.65V7.3a5.192 5.192 0 0 0 4.138 5.093c-.432.116-.89.18-1.357.18-.338 0-.657-.031-.973-.092.656 2.063 2.563 3.566 4.82 3.606A10.316 10.316 0 0 1 1.23 18.31c-.413 0-.827-.023-1.229-.07a14.524 14.524 0 0 0 7.907 2.332c9.488 0 14.673-7.913 14.673-14.775 0-.223-.004-.45-.015-.672a10.598 10.598 0 0 0 2.578-2.689" fill="#FEFEFE" mask="url(#9zvazh95fb)"/>
        </g>
    </g>
</svg>
