<svg width="300" height="112" viewBox="0 0 300 112" xmlns="http://www.w3.org/2000/svg">
    <g fill="#FFF" fill-rule="nonzero">
        <path d="M199.682 69.226c-5.22-.001-9.927 3.162-11.925 8.015a13.047 13.047 0 0 0 2.796 14.154 12.847 12.847 0 0 0 14.065 2.817c4.823-2.01 7.968-6.746 7.968-12 0-7.17-5.777-12.985-12.904-12.986zm0 18.746a5.726 5.726 0 0 1-5.292-3.556 5.788 5.788 0 0 1 1.241-6.28 5.7 5.7 0 0 1 6.241-1.248 5.762 5.762 0 0 1 3.534 5.325c-.004 3.179-2.564 5.755-5.724 5.76zM38.756 69.898v3.398a1.408 1.408 0 0 0 1.399 1.408H61.81V91.11a1.408 1.408 0 0 0 1.4 1.408h4.36a1.408 1.408 0 0 0 1.399-1.408V69.898a1.408 1.408 0 0 0-1.4-1.408H40.156a1.408 1.408 0 0 0-1.399 1.408z"/>
        <path d="M70.63 95.96H54.201V83.732a1.408 1.408 0 0 0-1.4-1.407h-3.376a1.408 1.408 0 0 0-1.399 1.407V95.96H36.072a1.406 1.406 0 0 0-1.4 1.405v3.398a1.406 1.406 0 0 0 1.4 1.405h34.557a1.406 1.406 0 0 0 1.399-1.405v-3.398a1.406 1.406 0 0 0-1.399-1.405zM78.403 74.696h21.656v16.407a1.406 1.406 0 0 0 1.397 1.408h4.363a1.406 1.406 0 0 0 1.396-1.408V69.898a1.406 1.406 0 0 0-1.396-1.408H78.403a1.408 1.408 0 0 0-1.4 1.408v3.398c.007.773.631 1.398 1.4 1.4z"/>
        <path d="M108.877 95.96H92.45V83.732a1.408 1.408 0 0 0-1.4-1.407h-3.376a1.408 1.408 0 0 0-1.399 1.407V95.96H74.32a1.406 1.406 0 0 0-1.399 1.405v3.398a1.406 1.406 0 0 0 1.4 1.405h34.557a1.403 1.403 0 0 0 1.396-1.405v-3.398a1.406 1.406 0 0 0-1.396-1.405zM116.65 74.696h21.657v16.407a1.406 1.406 0 0 0 1.396 1.408h4.363a1.406 1.406 0 0 0 1.397-1.408V69.898a1.406 1.406 0 0 0-1.397-1.408H116.65a1.408 1.408 0 0 0-1.398 1.408v3.398c.006.773.63 1.398 1.398 1.4z"/>
        <path d="M147.125 95.96h-16.428V83.732a1.408 1.408 0 0 0-1.399-1.407h-3.376a1.408 1.408 0 0 0-1.4 1.407V95.96h-11.955a1.406 1.406 0 0 0-1.399 1.405v3.398a1.406 1.406 0 0 0 1.4 1.405h34.557a1.403 1.403 0 0 0 1.396-1.405v-3.398a1.406 1.406 0 0 0-1.396-1.405z"/>
        <rect x="213.982" y="65.784" width="7.158" height="41.187" rx="1.399"/>
        <path d="M228.553 72.534h20.764v4.922a1.406 1.406 0 0 0 1.396 1.408h4.363a1.406 1.406 0 0 0 1.397-1.408v-9.73a1.406 1.406 0 0 0-1.397-1.408h-26.53a1.408 1.408 0 0 0-1.4 1.408v3.398c.001.374.15.733.413.998a1.4 1.4 0 0 0 .994.412zM266.846 68.871h28.955c.37 0 .727.149.99.413.261.264.409.622.409.995v3.398c0 .373-.148.731-.41.995a1.394 1.394 0 0 1-.99.413h-28.954c-.37 0-.727-.149-.989-.413a1.412 1.412 0 0 1-.41-.995v-3.398c0-.373.147-.732.41-.996.262-.264.618-.412.99-.412zM266.846 92.198h28.957a1.406 1.406 0 0 0 1.397-1.408v-3.398a1.406 1.406 0 0 0-1.397-1.408h-3.446v-8.043a1.406 1.406 0 0 0-1.397-1.407h-4.363a1.406 1.406 0 0 0-1.396 1.407v8.041h-7.436v-8.04a1.406 1.406 0 0 0-1.397-1.408h-4.363a1.406 1.406 0 0 0-1.396 1.407v8.041h-3.763a1.406 1.406 0 0 0-1.396 1.408v3.398c0 .776.624 1.407 1.396 1.41z"/>
        <path d="M259.215 80.349h-15.436v-3.733a1.408 1.408 0 0 0-1.4-1.408h-4.355a1.408 1.408 0 0 0-1.399 1.408v3.733h-11.654a1.408 1.408 0 0 0-1.399 1.408v3.397a1.408 1.408 0 0 0 1.399 1.408h34.249a1.406 1.406 0 0 0 1.396-1.408v-3.397a1.406 1.406 0 0 0-1.401-1.408zM256.588 100.333h-22.515v-.876h21.003a1.406 1.406 0 0 0 1.397-1.408v-9.244a1.406 1.406 0 0 0-1.397-1.406h-26.772a1.406 1.406 0 0 0-1.399 1.406v3.398a1.406 1.406 0 0 0 1.4 1.405h21.002v.871h-20.993a1.408 1.408 0 0 0-1.4 1.408v9.25a1.406 1.406 0 0 0 1.4 1.404h28.274a1.403 1.403 0 0 0 1.397-1.405v-3.398a1.406 1.406 0 0 0-1.397-1.405zM184.217 80.189h-4.066V67.192a1.408 1.408 0 0 0-1.4-1.408h-4.372a1.406 1.406 0 0 0-1.396 1.408v38.383a1.406 1.406 0 0 0 1.396 1.408h4.363a1.408 1.408 0 0 0 1.4-1.408V86.402h4.066a1.403 1.403 0 0 0 1.396-1.405v-3.398c0-.773-.619-1.402-1.387-1.41zM170.264 91.79h-13.337v-5.388h10.093a1.403 1.403 0 0 0 1.397-1.405v-3.398a1.406 1.406 0 0 0-1.397-1.408h-10.093v-5.495h10.742a1.406 1.406 0 0 0 1.404-1.4v-3.398a1.406 1.406 0 0 0-1.397-1.408h-16.509a1.406 1.406 0 0 0-1.39 1.408V96.595a1.406 1.406 0 0 0 1.397 1.408h19.098a1.408 1.408 0 0 0 1.398-1.408v-3.397a1.408 1.408 0 0 0-1.406-1.408z"/>
        <rect x="262.647" y="96.088" width="37.353" height="6.213" rx="1.399"/>
        <path d="M29.335 86.033c-.441-3.728-4.247-9.147-4.455-9.407-.207-.26.104-1.72.104-2.556 0-.835-.907-1.745-.93-1.85-.025-.104.18-9.329.257-9.928.07-.546.06-1.1-.026-1.643-.078-.486.13-.755.31-1.214.182-.459-.24-.99-.414-1.407-.174-.418-.027-1.095.26-2.139.287-1.043.242-6.514.205-6.723-.036-.208.391-.26.596-.652.205-.394.08-.91.311-1.095 1.26-.983 1.761-1.328 2.333-3.49.571-2.163-.907-6.568-.965-6.75-.058-.182 8.186-11.65 9.143-13.215.958-1.565.777-2.735.466-3.64-.311-.906-.777-3.517-.777-3.517s23.282 19.05 23.955 19.596c.673.546.364 1.043.157 1.303-.208.26-2.021 1.747-2.072 2.398-.05.65.931 1.563 1.891 1.512.96-.051 1.787-1.512 2.303-2.633.516-1.122.053-2.267-.361-2.67-.415-.403-26.623-22.329-26.623-22.329a7.96 7.96 0 0 1 1.175-.844 5.959 5.959 0 0 0 1.811-1.512c.649-.782.933-2.292.856-3.57.311.599.543 1.147.622 1.016.08-.13-.026-1.616-.026-1.616s.907-2.58.482-3.857c-.76-2.354-3.388-3.334-4.657-3.543-1.269-.209-3.167.136-4.764 1.213-1.596 1.078-2.067 3.558-2.067 3.558a.69.69 0 0 0-.525-.21c-.309.026-.44.78-.596.676-.157-.104-2.253-1.456-2.51-1.667-.259-.211-.027-.522 0-.755.026-.233-.57-.704-.934-.97C22.215.727 19.649.162 19.31.084c-.337-.078-.776.26-1.087.572-.312.313-1.423 1.284-2.096 1.59-.673.306-1.4.485-1.58.65-.181.166.128.627.128.627s-1.139.939-2.434 1.98c-1.295 1.041-3.885 3.57-5.231 5.029s-3.498 4.954-3.782 5.485c-.285.532-.724 1.33-.7 2.112.024.781 3.259 2.463 5.05 3.228a34.04 34.04 0 0 0 6.347 1.902c-1.062 2.685-4.274 7.4-5.258 9.068-.984 1.667-3.418 4.795-3.86 5.863-.44 1.068-.569 3.024-.672 3.362-.104.337-.311.835-.647.992-.335.158-.18 1.537-.388 1.719-.207.182-2.125 2.184-2.771 3.856-.647 1.673-.184 3.051.05 4.432.234 1.381.053 4.665.208 6.796.154 2.13.907 6.958 1.061 10.764.154 3.805.7 13.834 1.218 18.554.519 4.72 1.372 9.643 1.787 11.912.415 2.27.543 4.82.724 5.264.18.445 1.888.573 1.604 1.12-.285.545-.483 2.033-.208 2.997.275.963 3.394 1.59 5.335 1.876 1.942.286 5.285.184 6.995-.182a7.986 7.986 0 0 0 3.184-1.432c.675-.444.675-1.277.545-1.799-.13-.521-.623-.835-2.798-1.276-2.176-.442-4.064-1.328-5.28-2.505-1.215-1.177-1.27-3.806-1.447-4.536-.07-.282-1.295-.573-1.399-.65-.103-.078-.024-.183.053-1.173s-.103-3.597-.258-4.798c-.217-1.665-.241-5.888-.026-7.269.214-1.38.622-4.796.482-7.114-.14-2.317-.13-15.402-.077-15.792.053-.391.241-1.044.335-.889.094.156.285 5.89.649 7.976.364 2.084 3.03 7.453 4.97 10.841 1.942 3.388 4.636 8.444 5.259 9.878.357.823.545 2.24.803 3.126.258.886.965 2.294.965 4.51 0 2.216-1.296 3.31-1.708 4.368-.412 1.058-.806 2.381-.203 5.248.603 2.866 1.58 2.97 2.123 3.05.543.08 1.348-.289 2.798-1.67 1.45-1.38 2.667-5.21 2.925-7.167.258-1.956.442-4.17.57-4.897a5.874 5.874 0 0 0-.259-3.493 35.78 35.78 0 0 1-1.975-8.157zM15.867 14.729c-.914-.52-2.745-1.094-3.391-1.276.024-.442 1.04-2.427 1.102-2.573.092-.227.205-.445.338-.65.034.764 3.118 5.23 3.118 5.23a11.036 11.036 0 0 0-1.167-.73zm4.245-5.92.482-.091s2.475.34 3.42.228c.946-.112 2.275-.296 2.275-.296.405.265.796.553 1.17.861.156.18-.114.838-.316 1.063-.203.226-1.373 2.107-1.373 2.107a9.027 9.027 0 0 1-2.293-1.291c-.958-.794-3.365-2.58-3.365-2.58z"/>
    </g>
</svg>
