<svg width="512" height="512" viewBox="0 0 512 512" xmlns="http://www.w3.org/2000/svg">
    <g fill="none" fill-rule="evenodd">
        <path stroke="#979797" fill="#4AB5E8" d="M.5.5h511v511H.5z"/>
        <path d="M381.86 221.866h-67.435a13.328 13.328 0 0 0-13.34 13.34v41.649a13.328 13.328 0 0 0 13.34 13.34h26.717c-17.208 42.822-63.55 66.191-108.213 54.568-44.662-11.623-73.735-54.619-67.885-100.396 5.85-45.778 44.8-80.081 90.95-80.1a90.917 90.917 0 0 1 65.928 27.918 13.279 13.279 0 0 0 17.53 1.372l33.441-25.051a13.303 13.303 0 0 0 1.948-19.6c-44.328-49.204-114.39-66.008-176.215-42.264C136.802 130.385 96 189.767 96 255.994 96 344.192 167.771 416 255.994 416S416 344.229 416 255.994a34.128 34.128 0 0 0-34.14-34.128z" fill="#FFF" fill-rule="nonzero"/>
        <path d="M261.053 303.167c-.625-5.23-6.015-12.862-6.309-13.217-.294-.355.147-2.45.147-3.601 0-1.152-1.225-2.45-1.31-2.597-.086-.147.257-13.12.367-13.953a8.048 8.048 0 0 0 0-2.315 2.903 2.903 0 0 1 .441-1.715c.245-.662-.33-1.397-.588-1.985a5.34 5.34 0 0 1 .368-3c.292-3.144.386-6.303.281-9.458 0-.294.552-.367.846-.918.294-.552.11-1.225.44-1.532a6.982 6.982 0 0 0 3.296-4.9c.808-3.037-1.225-9.236-1.348-9.493-.122-.257 11.576-16.378 12.924-18.57a5.537 5.537 0 0 0 .661-5.133c-.44-1.225-1.09-4.9-1.09-4.9l23.556 19.024a1.151 1.151 0 0 1 .22 1.837c-.293.368-2.853 2.45-2.927 3.369-.073.919 1.31 2.193 2.67 2.119 1.36-.073 2.524-2.12 3.259-3.675a3.467 3.467 0 0 0-.514-3.675c-.576-.551-27.33-22.87-27.33-22.87a11.87 11.87 0 0 1 1.642-1.225 8.575 8.575 0 0 0 2.572-2.132 7.913 7.913 0 0 0 1.225-5.022c.429.845.76 1.617.87 1.433.057-.754.057-1.512 0-2.266 0 0 1.225-3.675.698-5.427-1.078-3.307-4.802-4.691-6.59-4.985-2.375-.25-4.762.35-6.738 1.69-2.253 1.507-2.927 5.023-2.927 5.023a.992.992 0 0 0-.747-.294c-.441 0-.625 1.09-.833.943-.209-.147-3.198-2.046-3.565-2.34-.368-.294 0-.735 0-1.066 0-.33-.796-.992-1.31-1.347a19.832 19.832 0 0 0-6.456-2.572c-.478-.11-1.09.367-1.532.808-.92.861-1.95 1.598-3.062 2.193-.943.44-1.972.698-2.23.918-.257.22.184.882.184.882s-1.617 1.323-3.442 2.781a91.37 91.37 0 0 0-7.35 7.08 58.64 58.64 0 0 0-5.353 7.693 6.125 6.125 0 0 0-.992 2.965c0 1.102 4.618 3.479 7.141 4.544a49.342 49.342 0 0 0 8.98 2.67c-1.495 3.774-6.04 10.413-7.436 12.753-1.397 2.34-4.9 6.737-5.464 8.244a29.522 29.522 0 0 0-.943 4.728 2.278 2.278 0 0 1-.918 1.385c-.478.22-.258 2.168-.552 2.45a19.87 19.87 0 0 0-3.92 5.414c-.918 2.352-.257 4.287.074 6.235.33 1.948.073 6.554.294 9.567.22 3.014 1.225 9.8 1.507 15.129.281 5.328.98 19.452 1.715 26.08.735 6.626 1.947 13.56 2.523 16.745.576 3.185.772 6.786 1.029 7.35.257.563 2.683.808 2.278 1.58a7.117 7.117 0 0 0-.294 4.214c.405 1.36 4.802 2.23 7.546 2.633 3.291.379 6.619.292 9.886-.257a11.025 11.025 0 0 0 4.508-2.009 2.278 2.278 0 0 0 .771-2.523c-.183-.735-.882-1.225-3.956-1.8a15.422 15.422 0 0 1-7.473-3.517c-1.727-1.653-1.8-5.353-2.058-6.382-.098-.392-1.825-.796-1.972-.906-.147-.11 0-.257.074-1.654a48.203 48.203 0 0 0-.368-6.737c-.3-3.403-.3-6.826 0-10.229.519-3.306.753-6.65.699-9.996-.184-3.258-.184-21.657-.11-22.208.073-.552.33-1.458.477-1.225.147.232.404 8.28.919 11.22.514 2.94 4.275 10.474 7.031 15.24 2.756 4.764 6.554 11.87 7.436 13.89a45.055 45.055 0 0 1 1.139 4.386 18.179 18.179 0 0 1 1.347 6.345c0 3.112-1.825 4.655-2.45 6.125-.624 1.47-1.139 3.344-.294 7.35.846 4.005 2.23 4.177 3.002 4.275.771.098 1.91-.392 3.956-2.34 2.046-1.947 3.773-7.35 4.14-10.069.368-2.72.625-5.868.81-6.897a8.22 8.22 0 0 0-.368-4.9 49.808 49.808 0 0 1-2.83-11.478zm-19.048-100.24a26.361 26.361 0 0 0-4.802-1.788 25.308 25.308 0 0 1 1.555-3.675c.127-.318.287-.622.478-.906 0 1.065 4.41 7.35 4.41 7.35a15.716 15.716 0 0 0-1.641-.98zm6.002-8.317.662-.135c1.622.238 3.26.344 4.9.319 1.335-.16 3.221-.417 3.221-.417.572.38 1.124.789 1.654 1.225.22.257-.16 1.225-.453 1.495-.294.27-1.936 2.964-1.936 2.964a12.678 12.678 0 0 1-3.258-1.825c-1.385-1.115-4.79-3.626-4.79-3.626z" fill="#FFF" fill-rule="nonzero"/>
    </g>
</svg>
