<svg width="32" height="32" viewBox="0 0 32 32" xmlns="http://www.w3.org/2000/svg">
    <g fill="none" fill-rule="evenodd">
        <path d="M11.12 9A2.13 2.13 0 1 1 9 11.12 2.12 2.12 0 0 1 11.12 9m0-2a4.13 4.13 0 1 0 0 8.26 4.13 4.13 0 0 0 0-8.26zM20.88 9a2.13 2.13 0 1 1-2.13 2.12A2.12 2.12 0 0 1 20.88 9m0-2a4.13 4.13 0 1 0-.02 8.26A4.13 4.13 0 0 0 20.88 7zM11.12 18.75a2.13 2.13 0 1 1 .02 4.26 2.13 2.13 0 0 1-.02-4.26m0-2a4.13 4.13 0 1 0 0 8.26 4.13 4.13 0 0 0 0-8.26zM20.88 18.75a2.13 2.13 0 1 1-2.13 2.13 2.12 2.12 0 0 1 2.13-2.13m0-2a4.13 4.13 0 1 0-.02 8.26 4.13 4.13 0 0 0 .02-8.26z" fill="#303030" fill-rule="nonzero"/>
        <path opacity=".2" d="M0 0h32v32H0z"/>
    </g>
</svg>
