<svg width="32" height="32" viewBox="0 0 32 32" xmlns="http://www.w3.org/2000/svg" xmlns:xlink="http://www.w3.org/1999/xlink">
    <defs>
        <path d="M16.617 4.968c-.963.976-1.808 2.533-1.58 4.024 1.563.086 3.104-.559 4.41-1.845 1.007-.823 1.61-2.436 1.549-4.147-1.55.078-3.059.756-4.379 1.968z" id="y76hb8pzva"/>
    </defs>
    <g fill="none" fill-rule="evenodd">
        <circle cx="16" cy="16" r="16"/>
        <path d="M15.592 10.126c-.94 0-2.4-1.076-3.937-1.045A5.83 5.83 0 0 0 6.717 12.1c-2.103 3.686-.54 9.149 1.514 12.139 1.001 1.461 2.195 3.106 3.76 3.047 1.516-.06 2.087-.986 3.914-.986 1.828 0 2.34.986 3.94.962 1.626-.036 2.657-1.5 3.649-2.963a13.34 13.34 0 0 0 1.653-3.428 5.3 5.3 0 0 1-3.2-4.877v-.002a5.45 5.45 0 0 1 2.573-4.578 5.567 5.567 0 0 0-4.357-2.394 3.507 3.507 0 0 0-.378-.018c-1.719 0-3.316 1.125-4.193 1.125z" fill="#303030"/>
        <use fill="#303030" xlink:href="#y76hb8pzva"/>
    </g>
</svg>
