<svg width="32" height="32" viewBox="0 0 32 32" xmlns="http://www.w3.org/2000/svg">
    <g fill="none" fill-rule="evenodd">
        <circle cx="16" cy="16" r="16"/>
        <g fill="#000" fill-rule="nonzero">
            <path d="M12.905 15.257h1.325l-.663-1.95z"/>
            <path d="M16 5C9.648 5 4.5 9.208 4.5 14.399c0 3.356 2.153 6.304 5.39 7.964-.176.63-1.132 4.05-1.17 4.32 0 0-.023.202.104.278.085.045.184.051.274.018.362-.053 4.202-2.844 4.865-3.324.675.097 1.356.145 2.037.143 6.352 0 11.5-4.208 11.5-9.4C27.5 9.209 22.352 5 16 5zm-5.695 12.023c0 .38-.297.687-.663.687a.676.676 0 0 1-.664-.687v-4.085H7.943a.645.645 0 0 1-.585-.329.695.695 0 0 1 0-.69.645.645 0 0 1 .585-.328h3.397a.645.645 0 0 1 .586.328.695.695 0 0 1 0 .69.645.645 0 0 1-.586.329h-1.035v4.085zm5.577.553a.991.991 0 0 1-.423.095c-.276 0-.487-.114-.553-.303l-.331-.892h-2.02l-.331.892c-.064.186-.276.303-.553.303a.983.983 0 0 1-.421-.095c-.184-.087-.36-.328-.159-.976l1.592-4.33c.138-.39.485-.656.884-.68.4.024.747.291.885.68l1.586 4.329c.202.65.026.895-.156.977zm3.352 0h-2.128a.634.634 0 0 1-.636-.63v-4.668a.69.69 0 0 1 .677-.674.69.69 0 0 1 .678.674v4.04h1.41a.604.604 0 0 1 .557.305c.118.2.118.452 0 .653a.604.604 0 0 1-.558.304v-.004zm5.197-.518a.68.68 0 0 1-.49.576.651.651 0 0 1-.7-.255l-1.555-2.135-.23.238v1.5c0 .38-.297.688-.664.688a.676.676 0 0 1-.663-.687v-4.7c0-.38.297-.688.663-.688.367 0 .664.308.664.688v1.474l1.85-1.919c.099-.1.232-.155.37-.153a.685.685 0 0 1 .651.64.546.546 0 0 1-.144.418l-1.515 1.567 1.633 2.243a.707.707 0 0 1 .127.509l.003-.004z"/>
        </g>
    </g>
</svg>
