<svg width="32" height="32" viewBox="0 0 32 32" xmlns="http://www.w3.org/2000/svg">
    <g fill="silver" fill-rule="nonzero">
        <path d="M9.5 6a3.5 3.5 0 1 1 0 7 3.5 3.5 0 0 1 0-7m0-2a5.5 5.5 0 1 0 0 11 5.5 5.5 0 0 0 0-11zM22.5 6a3.5 3.5 0 1 1 0 7 3.5 3.5 0 0 1 0-7m0-2a5.5 5.5 0 1 0 0 11 5.5 5.5 0 0 0 0-11zM9.5 19a3.5 3.5 0 1 1 0 7 3.5 3.5 0 0 1 0-7m0-2a5.5 5.5 0 1 0 0 11 5.5 5.5 0 0 0 0-11zM22.5 19a3.5 3.5 0 1 1 0 7 3.5 3.5 0 0 1 0-7m0-2a5.5 5.5 0 1 0 0 11 5.5 5.5 0 0 0 0-11z"/>
    </g>
</svg>
