<svg width="32" height="32" viewBox="0 0 32 32" xmlns="http://www.w3.org/2000/svg">
    <g fill-rule="nonzero" fill="none">
        <circle cx="16" cy="16" r="16"/>
        <path d="M6.476 16.278c-.193-5.066 4.245-9.748 9.316-9.809 2.585-.22 5.1.783 7.056 2.42-.803.883-1.619 1.755-2.491 2.571-1.722-1.046-3.795-1.843-5.808-1.135-3.246.924-5.212 4.757-4.01 7.933.994 3.316 5.028 5.136 8.19 3.743 1.637-.586 2.716-2.096 3.19-3.72-1.876-.037-3.753-.014-5.63-.065-.004-1.117-.009-2.229-.004-3.345 3.129-.005 6.262-.014 9.396.014.193 2.735-.211 5.662-1.99 7.857-2.434 3.134-6.932 4.054-10.592 2.824-3.884-1.275-6.708-5.188-6.623-9.288z" fill="#DC4E41"/>
    </g>
</svg>
