<svg width="24" height="24" viewBox="0 0 24 24" xmlns="http://www.w3.org/2000/svg">
    <g fill="none" fill-rule="evenodd">
        <path d="M5.25 3.75h13.5v15.922l-6-3.585a1.5 1.5 0 0 0-1.545 0L5.25 19.672V3.75z" fill="#4AB5E8" fill-rule="nonzero"/>
        <path d="M18 4.5v13.852l-4.845-2.91a2.25 2.25 0 0 0-2.31 0L6 18.352V4.5h12m.75-1.5H5.25a.75.75 0 0 0-.75.75v15.922c0 .415.336.75.75.75a.75.75 0 0 0 .383-.112l6-3.585a.75.75 0 0 1 .75 0l6 3.585a.75.75 0 0 0 .382.113.75.75 0 0 0 .75-.75V3.75a.75.75 0 0 0-.75-.75h-.015z" fill="#4AB5E8" fill-rule="nonzero"/>
        <path stroke="#FFF" stroke-width="1.52" stroke-linecap="round" d="M9.75 9.75h4.5"/>
    </g>
</svg>
