<svg width="32" height="32" viewBox="0 0 32 32" xmlns="http://www.w3.org/2000/svg">
    <g stroke="#303030" fill="none" fill-rule="evenodd">
        <path d="M23.448 12.048 20.92 22.195a1.68 1.68 0 0 1-1.635 1.305H9.43a1.695 1.695 0 0 1-1.68-1.725c.002-.165.028-.33.075-.487l3.157-10.148a1.695 1.695 0 0 1 1.605-1.193h9.226c.679 0 1.291.408 1.552 1.036.147.335.176.71.083 1.065z" stroke-width="2"/>
        <path d="M19 23.5h3.585a1.665 1.665 0 0 0 1.665-1.68.607.607 0 0 0 0-.12l-.75-10.2" stroke-width="2" stroke-linecap="round" stroke-linejoin="round"/>
        <path stroke-width="1.5" stroke-linecap="round" stroke-linejoin="round" d="m14.26 11.763.78-3.233M19.285 11.77l.705-3.255M12.775 15.985h6M12.025 18.985h6"/>
    </g>
</svg>
