<svg width="32" height="32" viewBox="0 0 32 32" xmlns="http://www.w3.org/2000/svg">
    <g fill="none" fill-rule="evenodd">
        <g fill="#303030" fill-rule="nonzero">
            <path d="M26 7v18H6V7h20m1-2H5a1 1 0 0 0-1 1v20a1 1 0 0 0 1 1h22a1 1 0 0 0 1-1V6a1 1 0 0 0-1-1z"/>
            <path d="M26 18v7H6v-7h5.42a5 5 0 0 0 9.16 0H26m2-2h-9a3 3 0 0 1-6 0H4v10a1 1 0 0 0 1 1h22a1 1 0 0 0 1-1V16z"/>
        </g>
        <path d="M16 18a2 2 0 0 0 2-2c0-1.105-4-1.105-4 0a2 2 0 0 0 2 2zM7 8h18v2H7z" fill="#4AB5E8"/>
    </g>
</svg>
