<svg width="32" height="32" viewBox="0 0 32 32" xmlns="http://www.w3.org/2000/svg">
    <g fill-rule="nonzero" stroke="#303030" stroke-width="2" fill="none">
        <path d="M15.994 6c.86.013 1.695.132 2.506.354v1.52a8.373 8.373 0 0 1 1.49.621l1.14-1.094a9.85 9.85 0 0 1 3.486 3.524l-1.09 1.097c.252.472.458.967.615 1.478h1.528A10 10 0 0 1 26 15.994c-.013.86-.132 1.695-.354 2.506h-1.514a8.373 8.373 0 0 1-.622 1.515l1.095 1.102a9.85 9.85 0 0 1-3.47 3.478l-1.14-1.078a8.373 8.373 0 0 1-1.495.624v1.528a10 10 0 0 1-2.494.331 10.033 10.033 0 0 1-2.506-.354v-1.511c-.508-.15-1-.35-1.471-.593l-1.107 1.099a9.85 9.85 0 0 1-3.515-3.509l1.076-1.136a8.373 8.373 0 0 1-.624-1.496H6.33A10 10 0 0 1 6 16.006c.013-.86.132-1.695.354-2.506h1.52a8.373 8.373 0 0 1 .615-1.478l-1.092-1.1a9.85 9.85 0 0 1 3.525-3.525l1.097 1.089a8.373 8.373 0 0 1 1.481-.624v-1.53A10 10 0 0 1 15.994 6z" stroke-linejoin="round"/>
        <path d="M16 12a4 4 0 1 0 0 8 4 4 0 0 0 0-8z"/>
    </g>
</svg>
