<svg width="252" height="20" viewBox="0 0 252 20" xmlns="http://www.w3.org/2000/svg">
    <g fill="silver" fill-rule="nonzero">
        <path d="M111.094.008c-5.51 0-9.976 4.475-9.976 9.996 0 5.52 4.466 9.995 9.976 9.995 5.51 0 9.977-4.475 9.977-9.995 0-2.651-1.051-5.194-2.922-7.068a9.967 9.967 0 0 0-7.055-2.928zm0 15.536a5.543 5.543 0 0 1-5.538-5.549 5.543 5.543 0 0 1 5.538-5.548 5.543 5.543 0 0 1 5.538 5.548 5.554 5.554 0 0 1-1.622 3.924 5.533 5.533 0 0 1-3.916 1.625zM210.582.008c-5.51 0-9.976 4.475-9.976 9.996 0 5.52 4.466 9.995 9.976 9.995 5.51 0 9.977-4.475 9.977-9.995 0-2.651-1.051-5.194-2.922-7.068a9.967 9.967 0 0 0-7.055-2.928zm0 15.536a5.543 5.543 0 0 1-5.538-5.549 5.543 5.543 0 0 1 5.538-5.548 5.543 5.543 0 0 1 5.538 5.548 5.554 5.554 0 0 1-1.622 3.924 5.533 5.533 0 0 1-3.916 1.625zM98.712 7.87h-4.205a.82.82 0 0 0-.82.833v2.608c0 .453.367.822.82.822h1.666a5.716 5.716 0 0 1-6.745 3.414 5.729 5.729 0 0 1-4.236-6.27 5.722 5.722 0 0 1 5.67-5.005 5.662 5.662 0 0 1 4.103 1.745.82.82 0 0 0 .615.253.82.82 0 0 0 .496-.167l2.078-1.574a.822.822 0 0 0 .123-1.22 9.96 9.96 0 0 0-12.624-1.831 10.003 10.003 0 0 0-4.098 12.102 9.971 9.971 0 0 0 11.13 6.243 9.988 9.988 0 0 0 8.156-9.826 2.131 2.131 0 0 0-2.13-2.127zM30.206.008a9.976 9.976 0 0 0-9.219 6.169 10.01 10.01 0 0 0 2.161 10.894 9.963 9.963 0 0 0 10.873 2.167 9.996 9.996 0 0 0 6.159-9.234c0-5.52-4.465-9.995-9.974-9.996zm0 15.536a5.543 5.543 0 0 1-5.538-5.549 5.543 5.543 0 0 1 5.538-5.548 5.543 5.543 0 0 1 5.537 5.548 5.554 5.554 0 0 1-1.622 3.924 5.533 5.533 0 0 1-3.915 1.625z"/>
        <path d="M17.821 7.87h-4.205a.82.82 0 0 0-.82.833v2.608c0 .453.367.822.82.822h1.668a5.718 5.718 0 0 1-6.748 3.418 5.731 5.731 0 0 1-4.238-6.275 5.724 5.724 0 0 1 5.678-5.004 5.66 5.66 0 0 1 4.102 1.745.82.82 0 0 0 1.093.086l2.094-1.574a.822.822 0 0 0 .121-1.22A9.96 9.96 0 0 0 4.762 1.477 10.003 10.003 0 0 0 .664 13.58a9.971 9.971 0 0 0 11.13 6.243 9.988 9.988 0 0 0 8.156-9.826 2.129 2.129 0 0 0-2.129-2.127zM70.649.008c-5.51 0-9.977 4.475-9.977 9.996 0 5.52 4.467 9.995 9.977 9.995 5.51 0 9.976-4.475 9.976-9.995 0-2.651-1.05-5.194-2.922-7.068A9.967 9.967 0 0 0 70.65.008zm0 15.536a5.543 5.543 0 0 1-5.538-5.549 5.543 5.543 0 0 1 5.538-5.548 5.543 5.543 0 0 1 5.538 5.548 5.554 5.554 0 0 1-1.622 3.924 5.533 5.533 0 0 1-3.916 1.625zM58.266 7.87h-4.204a.82.82 0 0 0-.831.833v2.608a.823.823 0 0 0 .83.822h1.666a5.716 5.716 0 0 1-6.746 3.412 5.729 5.729 0 0 1-4.233-6.272 5.722 5.722 0 0 1 5.671-5.003 5.662 5.662 0 0 1 4.102 1.745.82.82 0 0 0 1.091.086l2.099-1.572a.833.833 0 0 0 .129-1.212 9.96 9.96 0 0 0-12.624-1.831 10.003 10.003 0 0 0-4.098 12.102 9.971 9.971 0 0 0 11.13 6.244 9.988 9.988 0 0 0 8.156-9.826 2.135 2.135 0 0 0-2.138-2.136zM197.983 7.87h-4.205a.83.83 0 0 0-.833.833v2.608a.831.831 0 0 0 .833.822h1.665a5.717 5.717 0 0 1-5.838 3.578 5.733 5.733 0 0 1-2.126-10.78 5.71 5.71 0 0 1 6.758 1.086.82.82 0 0 0 .616.253.82.82 0 0 0 .496-.167l2.076-1.574a.822.822 0 0 0 .123-1.22 9.963 9.963 0 0 0-12.627-1.836 10.005 10.005 0 0 0-4.102 12.104 9.973 9.973 0 0 0 11.13 6.247 9.99 9.99 0 0 0 8.16-9.827 2.129 2.129 0 0 0-2.126-2.127zM120.314.662V4.93h6.057v14.416h4.254V4.924h6.231V.662zM252 4.905V.643h-15.754V19.307h4.254v-7.639h7.44V7.406h-7.44v-2.5zM225.262.672h-4.254v18.663h14.754v-4.262h-10.5zM149.366 7.912h-7.762V.688h-4.254v18.65h4.254v-7.164h7.762v7.163h4.254V.688h-4.254zM175.051.688h4.254v18.709h-4.254zM174.547 18.532l-7.035-16.387A3.544 3.544 0 0 0 164.27.032a3.544 3.544 0 0 0-3.24 2.113l-7.028 16.387a.583.583 0 0 0 .535.81h3.19a.82.82 0 0 0 .765-.508l5.778-13.452 5.763 13.452a.83.83 0 0 0 .765.507h3.2a.58.58 0 0 0 .58-.583.59.59 0 0 0-.045-.226h.013z"/>
    </g>
</svg>
